<svg width="66" height="65" viewBox="0 0 66 65" fill="none" xmlns="http://www.w3.org/2000/svg">
<path fill-rule="evenodd" clip-rule="evenodd" d="M14.9547 14.7253L0 29.4511V31.9569V34.4631H4.21022H8.42044V49.7315V65H25.5082H42.5963L42.4598 63.146C42.3278 61.3465 42.275 61.288 40.6618 61.1567L38.9999 61.021V54.0678V47.1141H30.8011H22.6022V54.094V61.0738H17.2841H11.9659V45.8054V30.5369H8.3123H4.65872L18.392 17.0134C27.0008 8.53594 32.447 3.48993 32.9877 3.48993C33.5142 3.48993 37.0619 6.63524 42.0951 11.5648L50.34 19.64L51.7524 18.2052L53.1653 16.7704L44.6381 8.38544L36.1108 0H33.0103H29.9098L14.9547 14.7253ZM49.1629 22.6837C44.623 23.4506 40.3716 26.7041 38.4003 30.9199C37.6726 32.4764 37.4581 33.7821 37.4594 36.6443C37.4616 40.8283 37.6212 41.2187 42.9026 49.9497C46.2122 55.421 49.6309 62.5658 49.634 64.0185C49.6358 64.8879 49.8596 65 51.5956 65C53.4481 65 53.5708 64.9228 53.8576 63.5822C54.3326 61.3578 57.1331 55.7216 61.1638 48.8774C63.1989 45.4215 65.1183 41.8936 65.4295 41.0368C66.2041 38.904 66.174 34.091 65.3714 31.8526C63.0877 25.4809 56.0775 21.5154 49.1629 22.6837ZM56.5596 27.406C60.8922 29.5986 63.2255 34.4932 62.0325 38.8853C61.7484 39.9322 60.2611 42.8498 58.7281 45.3691C57.1947 47.8884 55.0014 51.7989 53.854 54.0591L51.768 58.168L49.2445 53.4047C47.8569 50.7846 45.5399 46.6975 44.0961 44.3226C41.7711 40.4981 41.4507 39.6875 41.2916 37.2332C40.8755 30.7987 46.0119 25.8464 52.571 26.359C53.8199 26.4563 55.6148 26.9274 56.5596 27.406ZM22.6022 36.6443V42.7517H27.6988H32.7954V40.7886V38.8255H29.6931H26.5909V36.6443V34.4631H29.6931H32.7954V32.5V30.5369H27.6988H22.6022V36.6443ZM49.6363 36.4262V38.3893H51.6306H53.6249V36.4262V34.4631H51.6306H49.6363V36.4262ZM35.0113 55.8389V61.0738H30.8011H26.5909V55.8389V50.604H30.8011H35.0113V55.8389Z" fill="#3F8F21"/>
</svg>
